<!DOCTYPE svg PUBLIC "-//W3C//DTD SVG 1.1//EN" "http://www.w3.org/Graphics/SVG/1.1/DTD/svg11.dtd">
<!-- Uploaded to: SVG Repo, www.svgrepo.com, Transformed by: SVG Repo Mixer Tools -->
<svg fill="#ffffff" width="204px" height="204px" viewBox="-6.72 -6.72 45.44 45.44" version="1.1" xmlns="http://www.w3.org/2000/svg" stroke="#ffffff" stroke-width="0.00032">
<g id="SVGRepo_bgCarrier" stroke-width="0">
<path transform="translate(-6.72, -6.72), scale(2.84)" fill="#6c5eb0" d="M9.166.33a2.25 2.25 0 00-2.332 0l-5.25 3.182A2.25 2.25 0 00.5 5.436v5.128a2.25 2.25 0 001.084 1.924l5.25 3.182a2.25 2.25 0 002.332 0l5.25-3.182a2.25 2.25 0 001.084-1.924V5.436a2.25 2.25 0 00-1.084-1.924L9.166.33z" strokewidth="0"/>
</g>
<g id="SVGRepo_tracerCarrier" stroke-linecap="round" stroke-linejoin="round"/>
<g id="SVGRepo_iconCarrier"> <title>eye</title> <path d="M0 16q0.064 0.128 0.16 0.352t0.48 0.928 0.832 1.344 1.248 1.536 1.664 1.696 2.144 1.568 2.624 1.344 3.136 0.896 3.712 0.352 3.712-0.352 3.168-0.928 2.592-1.312 2.144-1.6 1.664-1.632 1.248-1.6 0.832-1.312 0.48-0.928l0.16-0.352q-0.032-0.128-0.16-0.352t-0.48-0.896-0.832-1.344-1.248-1.568-1.664-1.664-2.144-1.568-2.624-1.344-3.136-0.896-3.712-0.352-3.712 0.352-3.168 0.896-2.592 1.344-2.144 1.568-1.664 1.664-1.248 1.568-0.832 1.344-0.48 0.928zM10.016 16q0-2.464 1.728-4.224t4.256-1.76 4.256 1.76 1.76 4.224-1.76 4.256-4.256 1.76-4.256-1.76-1.728-4.256zM12 16q0 1.664 1.184 2.848t2.816 1.152 2.816-1.152 1.184-2.848-1.184-2.816-2.816-1.184-2.816 1.184l2.816 2.816h-4z"/> </g>
</svg>